<?xml version="1.0" encoding="UTF-8"?>
<svg id="Livello_2" xmlns="http://www.w3.org/2000/svg" viewBox="0 0 860.79 84.31">
  <defs>
    <style>
      .cls-1 {
        fill: #888a8e;
      }

      .cls-2 {
        fill: #898a8d;
      }

      .cls-3 {
        fill: #e1248d;
      }

      .cls-4 {
        fill: #240504;
      }

      .cls-5 {
        fill: #898a8e;
      }
    </style>
  </defs>
  <g id="Livello_1-2" data-name="Livello_1">
    <path d="M0,82.59V2.83h42.88v1.4H1.53v38.93h34.71v1.4H1.53v38.03H0Z"/>
    <path d="M105.67,82.59l-11.23-28.84h-38.29l-11.23,28.84h-1.79L74.53,2.83h1.53l31.4,79.77h-1.79ZM75.43,5h-.26l-18.51,47.35h37.14L75.43,5Z"/>
    <path d="M176,82.85L120.74,5.38v77.21h-1.53V2.83h1.53l55.13,77.21V2.83h1.53v80.02h-1.4Z"/>
    <path d="M218.5,82.59V4.23h-28.59v-1.4h58.71v1.4h-28.59v78.36h-1.53Z"/>
    <path d="M310.77,82.59l-11.23-28.84h-38.29l-11.23,28.84h-1.79L279.63,2.83h1.53l31.4,79.77h-1.79ZM280.53,5h-.26l-18.51,47.35h37.14l-18.38-47.35Z"/>
    <path class="cls-4" d="M635.19,11.25c0,23.76.03,47.53.03,71.29h-6.13c0-27.05-.03-81.16-.03-81.16h6.24s2.05,2.85,3.03,4.21c15.93,22.24,31.61,44.7,47.85,66.71,0-23.64-.01-47.29-.02-70.93h6.13s.03,54.14.03,81.21h-6.08s-33.69-47.83-51.04-71.34Z"/>
    <path class="cls-2" d="M355.49,38.03c2.57,1,4.93,2.08,7.11,3.55,5.49,3.68,8.39,8.84,8.83,15.42.46,6.94-1.44,13.11-6.13,18.3-3.46,3.83-7.9,5.86-12.91,6.78-2.54.46-5.13.54-7.7.51h-16.37V1.38s17.36-.07,23.53.57c6.98.72,11.65,4.99,13.91,11.51,2.77,8.04.87,16.14-6.77,22.02-1.1.8-2.21,1.59-3.49,2.54ZM334.73,59.51c0,5.47-.03,17.81-.03,17.81,0,0,9.19.04,13.75-.39,4.82-.41,8.9-2.21,11.96-6.09,3.44-4.34,4.36-9.3,3.8-14.73-.77-7.56-6.13-13.08-13.65-13.88-4.95-.54-9.9-.39-14.86-.46-1.05-.03-1.03.54-1.03,1.28.05,5.47.05,10.97.05,16.45ZM334.73,21.4v14.39s9.61.24,14.24-.8c5.36-1.18,8.9-4.34,10.21-9.77.54-2.21.59-4.47.44-6.76-.44-6.3-4.77-10.67-11.06-11.2-4.6-.39-9.22-.23-13.83-.23v14.37Z"/>
    <path class="cls-5" d="M472.01,10.66c-1.1,2.85-2.08,5.37-3.05,7.92-5.47,14.29-16.37,42.89-16.37,42.89l-.64,1.54,17.96-.03,2.76,5.6h-22.9s-3.27,8.74-4.88,13.11c-.28.72-.38.9-.38.9h-7.7s2.18-5.32,3.23-7.94c9.78-24.03,29.33-72.09,29.33-72.09l.54-1.18h4.62s.2.38,1.44,3.34c10.65,25.47,21.3,50.94,31.95,76.4.64,1.52.62,1.46.62,1.46h-7.18l-16.29-39.94s-8.34-20.51-12.5-30.76c-.13-.31-.26-.62-.54-1.23Z"/>
    <path class="cls-4" d="M716.3,1.38h36.15v5.68c-9.92,0-19.85-.05-29.77-.05v31.35h13.71v5.53h-13.71v33.13h34.08v5.58c-13.15-.02-27.35,0-40.49,0,0,0,.03-54.58.03-81.21Z"/>
    <path class="cls-1" d="M533.8.1c1.48-.13,2.92-.13,4.41,0,6.31.57,11.14,3.75,15.04,8.58.31.39.44.54.44.54,0,0-2.62,4.24-3.8,6.27-.51-.87-.95-1.67-1.41-2.44-3.64-6.12-9.13-8.45-16.29-6.81-5.31,1.21-8.93,5.91-9.39,11.36-.56,6.76,2.46,11.64,7.57,15.62,4.44,3.44,9.26,6.3,13.78,9.61,3.31,2.44,6.65,4.86,8.67,8.61,3.59,6.68,3.28,13.47.36,20.25-3,7.02-8.62,10.79-15.91,12.1-7.21,1.31-13.96.18-19.81-4.55-1.64-1.31-3.1-2.83-4.41-4.47-.26-.33-.54-.67-.54-.67,0,0,2.13-5.37,3.21-8.04,1.21,2.6,2.54,4.81,4.29,6.76,6.34,7.14,18.3,7.71,24.71,1.11,3.59-3.7,4.54-8.3,4.21-13.26-.33-4.83-2.72-8.51-6.49-11.44-5.34-4.14-11.14-7.63-16.45-11.82-2.77-2.18-5.47-4.42-7.18-7.58-6.95-12.46,1.49-28.55,15.01-29.73Z"/>
    <path class="cls-4" d="M786.04.1h4.41c6.31.57,11.14,3.75,15.04,8.58.31.39.44.54.44.54,0,0-2.62,4.24-3.8,6.27-.51-.87-.95-1.67-1.41-2.44-3.64-6.12-9.14-8.45-16.29-6.81-5.31,1.21-8.93,5.91-9.39,11.36-.57,6.76,2.46,11.64,7.57,15.62,4.44,3.44,9.26,6.3,13.78,9.61,3.31,2.44,6.65,4.86,8.67,8.61,3.59,6.68,3.28,13.47.36,20.25-3,7.02-8.62,10.79-15.91,12.1-7.21,1.31-13.96.18-19.81-4.55-1.64-1.31-3.11-2.83-4.41-4.47-.26-.33-.54-.67-.54-.67,0,0,2.13-5.37,3.21-8.04,1.2,2.6,2.54,4.81,4.28,6.76,6.34,7.14,18.3,7.71,24.71,1.11,3.59-3.7,4.54-8.3,4.21-13.26-.33-4.83-2.72-8.51-6.49-11.44-5.34-4.14-11.14-7.63-16.45-11.82-2.77-2.18-5.47-4.42-7.18-7.58-6.95-12.46,1.49-28.55,15.01-29.73Z"/>
    <path class="cls-4" d="M839.16.1h4.41c6.31.57,11.14,3.75,15.04,8.58.31.39.44.54.44.54,0,0-2.62,4.24-3.8,6.27-.52-.87-.95-1.67-1.41-2.44-3.64-6.12-9.14-8.45-16.29-6.81-5.31,1.21-8.93,5.91-9.39,11.36-.56,6.76,2.47,11.64,7.57,15.62,4.44,3.44,9.26,6.3,13.78,9.61,3.31,2.44,6.65,4.86,8.67,8.61,3.59,6.68,3.28,13.47.36,20.25-3,7.02-8.62,10.79-15.91,12.1-7.21,1.31-13.96.18-19.81-4.55-1.64-1.31-3.11-2.83-4.41-4.47-.26-.33-.54-.67-.54-.67,0,0,2.13-5.37,3.21-8.04,1.21,2.6,2.54,4.81,4.29,6.76,6.34,7.14,18.29,7.71,24.71,1.11,3.59-3.7,4.54-8.3,4.21-13.26-.33-4.83-2.72-8.51-6.49-11.44-5.33-4.14-11.14-7.63-16.45-11.82-2.77-2.18-5.47-4.42-7.19-7.58-6.95-12.46,1.49-28.55,15.01-29.73Z"/>
    <path class="cls-5" d="M593.33,82.59h-6.44V7.06l-16.14.03V1.38h55.12v5.71c-10.42-.02-32.54-.05-32.54-.05v75.55Z"/>
    <path class="cls-5" d="M397.24,77.12c.02-24.74.05-75.66.05-75.66h-6.49s.11,54.12,0,81.18c13.31,0,26.62-.03,39.93-.03v-5.5h-33.49Z"/>
    <path class="cls-3" d="M487.69,68.61h-12.39s-.18-.28-.38-.69c-.64-1.34-1.28-2.7-1.98-4.03-.33-.64-.46-.9-.46-.9h12.45s.1.21.33.64c.74,1.62,1.57,3.21,2.44,4.99Z"/>
  </g>
</svg>